#!OML:ASF H:\Terrain\Patient Classification 1\Walking\liu\liu.ASF
:FULLY-SPECIFIED
:DEGREES
81
root 9.310070 16.395700 -25.545700 4.316470 -7.997180 2.348710
lowerback -51.108700 -10.495000 -38.503399
upperback -15.701400 -12.502600 26.301800
thorax 13.873600 -6.296760 48.077400
lowerneck -221.502991 -39.899399 -117.187004
upperneck 192.576004 -45.700001 120.421997
head 103.834000 -15.654100 55.992599
rclavicle 0.000000 0.000000
rhumerus -437.285004 139.666992 -891.070007
rradius 399.999023
rwrist -221.317993
rhand -306.627991 -226.641998
rfingers 71.250198
rthumb -39.575001 -526.072021
lclavicle 0.000000 0.000000
lhumerus -278.019989 -121.266006 874.086975
lradius 257.416016
lwrist 10.894700
lhand -129.231995 -239.750992
lfingers 71.250198
lthumb 131.671997 55.890800
rfemur -217.996002 4.775480 180.592987
rtibia 624.648987
rfoot -157.964996 -123.331001
rtoes -99.564598
lfemur -165.930008 29.330900 -270.295990
ltibia 275.541992
lfoot -157.175003 93.733902
ltoes 8.552839
82
root 9.316640 16.392300 -25.434500 4.266400 -7.744790 2.390870
lowerback -51.343899 -11.395101 -38.340099
upperback -15.149500 -13.696800 25.940300
thorax 14.697000 -6.924760 47.517601
lowerneck -222.320999 -39.417702 -116.675995
upperneck 193.785004 -45.256001 120.614998
head 104.350998 -15.368100 56.100201
rclavicle -0.000000 0.000000
rhumerus -437.673004 140.160995 -891.181030
rradius 400.906982
rwrist -220.167007
rhand -306.309998 -225.415009
rfingers 71.250198
rthumb -39.268002 -524.849976
lclavicle -0.000000 0.000000
lhumerus -272.411011 -125.753006 872.276978
lradius 262.781006
lwrist 15.995199
lhand -111.125000 -232.429016
lfingers 71.250198
lthumb 149.121002 62.003799
rfemur -228.097992 8.852910 181.744995
rtibia 619.478027
rfoot -165.342010 -124.245003
rtoes -112.790001
lfemur -160.539001 28.363800 -271.291992
ltibia 274.790009
lfoot -158.584000 92.031700
ltoes -1.220850
83
root 9.323590 16.384701 -25.321100 4.101470 -7.460860 2.503740
lowerback -50.282402 -12.110000 -39.095798
upperback -15.029600 -14.638200 25.640200
thorax 14.342700 -7.390420 47.585602
lowerneck -223.554993 -39.813198 -116.757004
upperneck 197.455002 -45.666100 119.462997
head 105.931000 -15.672501 55.762001
rclavicle -0.000000 0.000000
rhumerus -438.526001 137.666000 -890.045044
rradius 400.195984
rwrist -217.294006
rhand -306.899994 -232.029999
rfingers 71.250198
rthumb -39.837601 -531.455017
lclavicle -0.000000 0.000000
lhumerus -268.019989 -130.139999 871.404053
lradius 268.782990
lwrist 19.389000
lhand -100.738998 -229.825989
lfingers 71.250198
lthumb 159.125000 63.836998
rfemur -236.641006 11.451500 181.766998
rtibia 613.726013
rfoot -170.739990 -125.931000
rtoes -108.606995
lfemur -153.819000 26.943300 -273.160980
ltibia 273.580994
lfoot -154.154999 92.810097
ltoes -9.410180
84
root 9.333510 16.368401 -25.205601 3.804390 -7.268840 2.721150
lowerback -49.018898 -12.329599 -40.640202
upperback -13.921100 -14.884000 25.182400
thorax 14.834000 -7.550350 47.979797
lowerneck -224.897995 -40.551201 -118.264999
upperneck 199.708008 -45.968899 118.503998
head 107.050003 -16.012199 55.703701
rclavicle 0.000000 -0.000000
rhumerus -438.484009 136.450989 -888.118958
rradius 399.046997
rwrist -217.357010
rhand -308.579987 -239.951996
rfingers 71.250198
rthumb -41.460400 -539.346008
lclavicle 0.000000 -0.000000
lhumerus -262.845001 -136.231003 871.629028
lradius 275.859009
lwrist 25.360100
lhand -99.859200 -231.190002
lfingers 71.250198
lthumb 159.972000 62.404999
rfemur -242.983002 13.440000 180.412003
rtibia 607.022034
rfoot -176.367004 -128.535995
rtoes -91.688301
lfemur -145.343994 24.981201 -276.309998
ltibia 272.434021
lfoot -154.414993 94.867699
ltoes -22.844501
85
root 9.341850 16.355499 -25.090401 3.764770 -7.075160 2.903220
lowerback -51.023998 -11.789700 -41.280197
upperback -11.321000 -14.031700 24.028500
thorax 18.530399 -7.268980 47.140900
lowerneck -229.087006 -42.517601 -118.802994
upperneck 199.368988 -47.983498 118.303001
head 108.001007 -16.874901 55.404202
rclavicle -0.000000 -0.000000
rhumerus -434.737000 134.457001 -886.201050
rradius 398.670990
rwrist -219.118011
rhand -310.126984 -240.807007
rfingers 71.250198
rthumb -42.953602 -540.171997
lclavicle -0.000000 -0.000000
lhumerus -253.520996 -144.279999 870.421021
lradius 282.328003
lwrist 32.048000
lhand -101.610001 -232.718994
lfingers 71.250198
lthumb 158.285995 61.010399
rfemur -251.862000 15.188200 179.179001
rtibia 599.367004
rfoot -180.751984 -129.112000
rtoes -116.259003
lfemur -139.785004 23.548901 -279.044006
ltibia 271.368988
lfoot -160.104004 94.610794
ltoes -35.053001
